<?xml version="1.0" standalone="no"?>
<!DOCTYPE svg PUBLIC "-//W3C//DTD SVG 20010904//EN"
 "http://www.w3.org/TR/2001/REC-SVG-20010904/DTD/svg10.dtd">
<svg version="1.0" xmlns="http://www.w3.org/2000/svg"
 width="700.000000pt" height="700.000000pt" viewBox="0 0 700.000000 700.000000"
 preserveAspectRatio="xMidYMid meet">
<metadata>
Created by potrace 1.14, written by Peter Selinger 2001-2017
</metadata>
<g transform="translate(0.000000,700.000000) scale(0.100000,-0.100000)"
fill="#000000" stroke="none">
<path d="M4248 6675 c-59 -15 -106 -51 -168 -128 -85 -107 -146 -244 -175
-397 -15 -73 -18 -297 -6 -352 l8 -36 -686 -686 -687 -687 -84 20 c-47 10
-110 22 -140 27 -30 4 -62 8 -70 9 -250 35 -512 21 -740 -40 -166 -44 -403
-190 -474 -293 -40 -58 -47 -149 -17 -212 16 -33 187 -210 651 -674 l629 -629
-697 -696 c-383 -384 -716 -719 -738 -747 -111 -133 -252 -379 -274 -478 -13
-59 -6 -84 26 -97 71 -26 307 89 526 258 32 24 374 360 761 748 l704 703 634
-633 c455 -454 645 -637 673 -649 77 -32 172 -15 239 43 41 37 138 168 175
238 41 78 76 172 102 271 19 75 23 99 36 212 19 172 5 415 -36 625 -6 28 -12
60 -15 73 -2 13 -7 33 -11 44 -5 17 106 133 681 708 l687 687 41 -8 c62 -11
257 -9 335 4 213 35 463 180 522 303 29 59 29 128 2 186 -32 65 -2234 2262
-2282 2277 -59 18 -83 19 -132 6z m1834 -2338 c-28 -8 -203 -10 -237 -3 -11 2
-45 10 -75 18 -63 17 -120 14 -170 -9 -39 -17 -1582 -1550 -1631 -1621 -38
-54 -50 -123 -32 -183 56 -187 87 -398 87 -584 0 -160 -9 -227 -46 -343 l-20
-64 -1204 1204 -1204 1203 38 17 c21 9 86 26 145 36 193 35 465 16 716 -48
129 -34 182 -37 237 -14 55 23 1622 1588 1654 1652 28 54 28 83 6 195 -20 98
-24 186 -12 266 l7 55 885 -885 c847 -847 883 -884 856 -892z"/>
</g>
</svg>
